nColumns=19
nRows=41
DataType=double
version=3
OpenSimVersion=4.1
endheader
time	ground_force_tibia_r_vx	ground_force_tibia_r_vy	ground_force_tibia_r_vz	ground_force_tibia_r_px	ground_force_tibia_r_py	ground_force_tibia_r_pz	ground_force_tibia_r_mx	ground_force_tibia_r_my	ground_force_tibia_r_mz	ground_force_tibia_l_vx	ground_force_tibia_l_vy	ground_force_tibia_l_vz	ground_force_tibia_l_px	ground_force_tibia_l_py	ground_force_tibia_l_pz	ground_force_tibia_l_mx	ground_force_tibia_l_my	ground_force_tibia_l_mz
4.775	34.5542	393.485	17.0875	0.388831	4.44089e-17	1.29942	-0.374577	-4.26549	-0.185234	-33.9737	253.373	-17.6466	0.539438	4.44089e-17	1.11701	0.91475	-6.82212	0.475139
4.78	34.5525	394.097	16.7848	0.388891	4.44089e-17	1.29926	-0.384453	-4.38498	-0.186759	-33.3655	254.594	-17.1858	0.537266	4.44089e-17	1.11463	0.931742	-7.10961	0.479921
4.785	34.8577	393.793	16.7839	0.388337	4.44089e-17	1.29887	-0.381944	-4.31488	-0.183905	-35.1958	253.98	-16.5763	0.538782	4.44089e-17	1.11469	0.907092	-6.54575	0.427216
4.79	34.5513	394.098	16.7851	0.388543	4.44089e-17	1.29926	-0.384902	-4.39025	-0.186986	-34.8909	253.98	-16.4237	0.538214	4.44089e-17	1.11513	0.925773	-6.73894	0.435776
4.795	34.552	393.487	16.9355	0.388837	4.44089e-17	1.2994	-0.383029	-4.36203	-0.18774	-34.1297	254.897	-16.4216	0.538059	4.44089e-17	1.11474	0.925111	-6.90916	0.445119
4.8	34.5516	393.488	16.6304	0.389888	4.44089e-17	1.29937	-0.39263	-4.47145	-0.188982	-34.7395	254.285	-16.2703	0.538919	4.44089e-17	1.11592	0.915862	-6.70391	0.428945
4.805	34.3958	394.708	16.9404	0.389299	4.44089e-17	1.30005	-0.384311	-4.41016	-0.189279	-35.0461	254.897	-16.5737	0.537106	4.44089e-17	1.11484	0.861911	-6.26884	0.407607
4.81	34.7006	394.711	16.3303	0.389299	4.44089e-17	1.30024	-0.398833	-4.53663	-0.187692	-35.3502	253.981	-16.7284	0.538128	4.44089e-17	1.11635	0.961546	-6.90843	0.455022
4.815	34.5489	394.102	16.1754	0.389244	4.44089e-17	1.30013	-0.402796	-4.59472	-0.188584	-35.5024	253.372	-17.1876	0.539859	4.44089e-17	1.11674	1.0261	-7.32301	0.49676
4.82	35.158	394.408	16.3295	0.389448	4.44089e-17	1.29984	-0.400444	-4.49224	-0.18599	-35.8084	253.677	-17.1866	0.54003	4.44089e-17	1.1157	1.01084	-7.16108	0.485164
4.825	35.1576	394.408	16.3296	0.389456	4.44089e-17	1.30005	-0.407239	-4.56853	-0.18915	-36.2657	253.37	-16.5768	0.542751	4.44089e-17	1.11619	0.975911	-6.81817	0.446082
4.83	35.6167	393.493	16.479	0.390585	4.44089e-17	1.29983	-0.393687	-4.34944	-0.182149	-36.7249	253.981	-16.8802	0.541869	4.44089e-17	1.11576	0.997044	-6.89532	0.458279
4.835	35.1606	392.577	16.1702	0.389643	4.44089e-17	1.29882	-0.413681	-4.61886	-0.19025	-37.029	253.065	-17.0349	0.543006	4.44089e-17	1.11635	1.04716	-7.15657	0.48174
4.84	35.6178	392.577	16.4757	0.389996	4.44089e-17	1.29977	-0.407672	-4.49333	-0.188576	-36.8774	253.674	-16.423	0.542354	4.44089e-17	1.11598	0.985028	-6.77586	0.438672
4.845	35.7721	391.663	16.1671	0.390119	4.44089e-17	1.29895	-0.441203	-4.83067	-0.199401	-37.337	254.59	-16.573	0.540534	4.44089e-17	1.1146	1.01028	-6.88884	0.44844
4.85	36.0768	391.664	16.1673	0.390461	4.44089e-17	1.29921	-0.43308	-4.70169	-0.194079	-36.2672	253.371	-16.7291	0.542095	4.44089e-17	1.1164	1.02986	-7.19486	0.475047
4.855	35.9251	391.053	16.165	0.390402	4.44089e-17	1.29912	-0.428388	-4.6631	-0.19276	-37.0294	252.759	-16.4251	0.543009	4.44089e-17	1.11575	1.01093	-6.90051	0.448418
4.86	35.3135	391.356	16.7764	0.389921	4.44089e-17	1.29929	-0.429368	-4.75839	-0.20398	-36.4204	253.371	-16.8815	0.54045	4.44089e-17	1.11641	1.03291	-7.18579	0.47877
4.865	35.7683	392.578	16.7814	0.388986	4.44089e-17	1.29971	-0.433653	-4.75959	-0.203457	-35.8103	253.373	-17.0342	0.54099	4.44089e-17	1.11597	1.0155	-7.18511	0.483054
4.87	35.7699	391.662	16.778	0.389785	4.44089e-17	1.29944	-0.438929	-4.80605	-0.205881	-35.5055	253.374	-17.492	0.538744	4.44089e-17	1.11564	1.02404	-7.30776	0.504501
4.875	35.6183	391.052	16.623	0.390072	4.44089e-17	1.29888	-0.434833	-4.77401	-0.202936	-34.7436	253.985	-17.1855	0.535835	4.44089e-17	1.11502	0.993793	-7.26489	0.491568
4.88	35.9226	391.359	16.3192	0.390611	4.44089e-17	1.29882	-0.430344	-4.68838	-0.1955	-34.1339	253.989	-18.4064	0.535069	4.44089e-17	1.11583	1.02449	-7.62316	0.552446
4.885	35.617	391.357	16.777	0.390619	4.44089e-17	1.29907	-0.425464	-4.67497	-0.20041	-33.6752	253.68	-16.7289	0.535237	4.44089e-17	1.11551	0.960945	-7.23894	0.47737
4.89	35.618	390.747	16.7747	0.391633	4.44089e-17	1.29871	-0.436058	-4.78377	-0.205367	-33.2168	253.071	-17.0357	0.534336	4.44089e-17	1.11499	0.97634	-7.43851	0.500731
4.895	35.3131	390.44	17.0786	0.39177	4.44089e-17	1.29813	-0.418702	-4.62939	-0.202499	-32.456	254.293	-17.1854	0.53171	4.44089e-17	1.11522	0.925503	-7.25134	0.490053
4.9	35.1582	391.356	17.0822	0.392049	4.44089e-17	1.29881	-0.439125	-4.88802	-0.213356	-31.6919	253.379	-17.6458	0.53111	4.44089e-17	1.11613	0.966777	-7.72947	0.538293
4.905	35.6144	391.967	17.0848	0.39174	4.44089e-17	1.29916	-0.430668	-4.73988	-0.206598	-31.2359	254.297	-18.1013	0.531554	4.44089e-17	1.11484	0.926719	-7.54458	0.537036
4.91	35.1563	391.966	17.2372	0.391743	4.44089e-17	1.2987	-0.429704	-4.79087	-0.210685	-31.3885	254.296	-17.6434	0.533244	4.44089e-17	1.11664	0.922485	-7.47357	0.518528
4.915	35.6129	392.27	17.849	0.390543	4.44089e-17	1.29797	-0.414887	-4.56991	-0.207939	-31.6919	253.075	-17.799	0.532165	4.44089e-17	1.11615	0.907854	-7.24963	0.509874
4.92	35.9161	393.189	17.2423	0.390791	4.44089e-17	1.29844	-0.423338	-4.63446	-0.203233	-31.0843	254.603	-18.253	0.530014	4.44089e-17	1.11502	0.943744	-7.72995	0.554177
4.925	36.0698	392.579	17.2401	0.391088	4.44089e-17	1.29881	-0.423651	-4.61096	-0.20249	-30.3209	254.298	-18.1015	0.530444	4.44089e-17	1.11662	0.921721	-7.73037	0.550264
4.93	36.3735	393.19	17.2426	0.391151	4.44089e-17	1.29842	-0.431833	-4.66803	-0.204708	-30.3229	255.519	-17.9457	0.528393	4.44089e-17	1.1159	0.901286	-7.59477	0.533399
4.935	36.22	393.495	17.2438	0.391336	4.44089e-17	1.29815	-0.418842	-4.5503	-0.199404	-30.627	254.604	-18.5583	0.529431	4.44089e-17	1.11678	0.937456	-7.79313	0.568046
4.94	36.3725	393.496	17.0913	0.391691	4.44089e-17	1.29859	-0.427654	-4.62658	-0.200953	-31.3905	254.909	-18.4046	0.530691	4.44089e-17	1.11692	0.944568	-7.67041	0.55381
4.945	36.6774	393.496	17.244	0.391008	4.44089e-17	1.29857	-0.436205	-4.67985	-0.205083	-32.4598	255.518	-18.4026	0.52889	4.44089e-17	1.11603	0.936343	-7.37073	0.530846
4.95	36.6751	394.41	17.7054	0.391266	4.44089e-17	1.29909	-0.428461	-4.60773	-0.206844	-31.6994	257.046	-18.5515	0.528439	4.44089e-17	1.11594	0.959615	-7.78137	0.561598
4.955	36.5231	394.105	17.5516	0.391753	4.44089e-17	1.2987	-0.424285	-4.57827	-0.203894	-32.6122	255.213	-18.7085	0.53244	4.44089e-17	1.11671	0.956577	-7.48589	0.548754
4.96	36.9803	394.413	17.0952	0.391957	4.44089e-17	1.29813	-0.438915	-4.68125	-0.202901	-32.7653	255.518	-18.555	0.532025	4.44089e-17	1.11653	0.975407	-7.60665	0.552373
4.965	36.8269	394.718	17.2489	0.391459	4.44089e-17	1.29877	-0.433644	-4.64788	-0.203109	-32.9185	255.824	-18.7067	0.532164	4.44089e-17	1.11698	0.970843	-7.54483	0.551704
4.97	36.6743	394.718	17.0963	0.391458	4.44089e-17	1.29853	-0.436727	-4.70041	-0.203587	-33.528	255.213	-18.7081	0.532384	4.44089e-17	1.11759	0.999205	-7.60587	0.55754
4.975	36.5227	394.105	17.7042	0.392099	4.44089e-17	1.29802	-0.418691	-4.51796	-0.202959	-33.6812	255.518	-18.8598	0.533074	4.44089e-17	1.11765	0.988415	-7.49848	0.553463
